<?xml version="1.0" encoding="UTF-8"?>
<svg width="60px" height="55px" viewBox="0 0 60 55" version="1.1" xmlns="http://www.w3.org/2000/svg" xmlns:xlink="http://www.w3.org/1999/xlink">
    <!-- Generator: Sketch 45.2 (43514) - http://www.bohemiancoding.com/sketch -->
    <title>快速发货</title>
    <desc>Created with Sketch.</desc>
    <defs></defs>
    <g id="index" stroke="none" stroke-width="1" fill="none" fill-rule="evenodd">
        <g id="Desktop" transform="translate(-125.000000, -3023.000000)" fill-rule="nonzero" fill="#FF5542">
            <g id="sector-promise" transform="translate(0.000000, 2641.000000)">
                <g id="尽快发货" transform="translate(125.000000, 382.000000)">
                    <g id="快速发货">
                        <path d="M5.99351618,0.0183072328 L40.6270586,0.0183072328 C43.9372663,0.0183072328 46.618916,2.73245817 46.618916,6.07640162 L46.618916,16.0968566 L59.4219481,23.5842186 L59.4058342,23.6104056 C59.7559546,23.8681288 59.9959441,24.2667406 59.9970104,24.7388777 L59.9970104,45.0860338 C59.9970104,45.9657882 59.368334,46.6835621 58.5911971,46.6835621 C57.8141786,46.6835621 57.1853837,45.9656697 57.1853837,45.0860338 L57.1853837,25.5541716 L44.5219851,18.1482146 C43.9096595,17.9284093 43.4661736,17.3545457 43.4661736,16.6600558 C43.4661736,16.656738 43.46724,16.6555531 43.46724,16.6538941 L43.4661736,16.6538941 L43.4661736,6.39562288 C43.4661736,4.63558093 42.0534882,3.20886095 40.3118317,3.20886095 L6.30844681,3.20886095 C4.56631643,3.20886095 3.15511203,4.63641038 3.15511203,6.39562288 L3.15511203,40.2062972 C3.15511203,41.0860516 2.44799916,41.8007446 1.5765489,41.8007446 C0.705039399,41.8007446 0,41.0865848 0,40.2062972 L0,6.07646087 C0.00071090436,2.73257667 2.68336775,0.0183664795 5.99333845,0.0183664795 L5.99351618,0.0183072328 Z M48.8513926,30.1350678 C49.6838617,30.1388004 50.3606426,30.8230406 50.3606426,31.6627442 C50.3606426,32.5028625 49.6837432,33.1881692 48.8495561,33.1881692 C48.8442244,33.1881692 48.8382409,33.1844366 48.833857,33.1844366 L40.8958397,33.1844366 C37.6965331,33.2017959 37.8789393,30.1351863 37.8789393,30.1351863 L37.8789393,23.7861906 C37.8789393,22.9442356 38.5546539,22.2606471 39.3870637,22.2606471 C40.2212507,22.2606471 40.8969653,22.9431692 40.8969653,23.7861906 C40.8969653,23.7894492 40.8957804,23.792293 40.8957804,23.7956108 L40.8957804,30.1351863 L48.8514519,30.1351271 L48.8513926,30.1350678 L48.8513926,30.1350678 Z M13.2465179,38.3807877 C17.2455919,38.3807877 20.5182994,41.4309859 21.0027214,45.3439348 L36.8333767,45.3373584 C37.3204647,41.4273126 40.5932906,38.3806692 44.5896395,38.3806692 C48.9211205,38.3806692 52.4445403,41.942759 52.4445403,46.3228089 C52.4445403,50.6993632 48.9199357,54.2610383 44.5896395,54.2610383 C40.841574,54.2610383 37.7059526,51.5887155 36.9288749,48.0330836 L20.902247,48.0396007 C20.1221479,51.5914409 16.9891924,54.2609198 13.24557,54.2609198 C8.91349659,54.2609198 5.39072852,50.698119 5.39072852,46.3227496 C5.39280199,41.9432922 8.91545158,38.3805507 13.2465179,38.3805507 L13.2465179,38.3807877 Z M44.5906466,50.8973657 C47.0862171,50.8973657 49.1161453,48.8434008 49.1161453,46.3229866 C49.1161453,43.7985436 47.0862171,41.7484298 44.5906466,41.7484298 C42.0953131,41.7484298 40.0647925,43.7985436 40.0647925,46.3229866 C40.0647332,48.8432231 42.0962017,50.8973657 44.5906466,50.8973657 Z M13.2465179,50.8973657 C15.7420292,50.8973657 17.7710095,48.8434008 17.7710095,46.3229866 C17.7710095,43.7985436 15.7410813,41.7484298 13.2465179,41.7484298 C10.7510659,41.7484298 8.7205453,43.7985436 8.7205453,46.3229866 C8.72125621,48.8432231 10.7521322,50.8973657 13.2465179,50.8973657 Z" id="Shape"></path>
                        <polyline id="Shape" points="14.4908375 30.694416 15.5973601 21.7177695 11.038449 21.7177695 20.0146236 9.97874529 18.908101 18.9555695 23.4669529 18.9555695 14.4908375 30.694416"></polyline>
                    </g>
                </g>
            </g>
        </g>
    </g>
</svg>