<?xml version="1.0" encoding="UTF-8"?>
<svg width="52px" height="60px" viewBox="0 0 52 60" version="1.1" xmlns="http://www.w3.org/2000/svg" xmlns:xlink="http://www.w3.org/1999/xlink">
    <!-- Generator: Sketch 45.2 (43514) - http://www.bohemiancoding.com/sketch -->
    <title>退货</title>
    <desc>Created with Sketch.</desc>
    <defs></defs>
    <g id="index" stroke="none" stroke-width="1" fill="none" fill-rule="evenodd">
        <g id="Desktop" transform="translate(-540.000000, -2802.000000)" fill-rule="nonzero" fill="#FF5542">
            <g id="sector-promise" transform="translate(0.000000, 2641.000000)">
                <g id="退换货" transform="translate(533.000000, 161.000000)">
                    <g id="退货" transform="translate(7.000000, 0.000000)">
                        <path d="M30.3797444,30.3278357 L21.0813254,30.3278357 L21.4788588,29.1424861 C21.6109837,28.748657 21.7754056,28.2584684 21.9212838,27.8019756 C22.2315067,26.7996226 22.2479643,26.4324306 22.2122675,26.2993119 C22.1378603,26.3179578 22.0056582,26.3644395 21.8120297,26.480444 C21.2075007,26.838313 20.431055,27.2315427 19.5319108,27.6865705 L19.2493492,27.8302109 C17.9745379,28.4790899 16.5298187,29.2146726 15.2523804,30.0171143 C13.8473759,30.8954051 13.1669718,31.6256604 13.1703715,32.2508324 C13.1767845,32.6750277 13.5373848,33.1068812 14.2416642,33.5270144 C16.1373076,34.6632186 21.3514473,37.0780688 22.4116137,37.5593341 L22.4243626,37.5609989 C22.4704903,37.4885461 22.6374621,37.0704107 21.9261516,35.3948724 L21.010627,33.4517647 L30.3612006,33.4465039 L30.4271085,33.4540954 C32.0636018,33.6412209 35.1584131,34.7423307 35.1584131,37.569323 C35.1584131,40.0213984 32.6905379,41.6809545 30.3856166,41.6926082 L17.5779316,41.6926082 C17.573373,42.1929856 17.5677325,43.2521421 17.5790906,44.8156715 L30.4114235,44.8156715 C30.8077979,44.8156715 34.3522199,44.756071 36.7089866,42.6968257 C38.1225676,41.4623307 38.8200475,39.7479689 38.7820327,37.6010211 L38.7814146,37.5666593 L38.7838871,37.5325638 C38.7850461,37.5096559 38.8742883,34.376737 36.5012184,32.2586238 C35.052945,30.9784462 32.992107,30.3278357 30.3797444,30.3278357 L30.3797444,30.3278357 Z M51.968321,11.0563818 C51.9680119,9.15223085 50.1680238,7.60308546 47.9560535,7.60308546 L38.7820327,7.60308546 L38.7820327,3.47986681 C38.7820327,1.34683685 36.7020327,0.0265038846 34.7751738,0.0265038846 L17.1934562,0.0265038846 C15.7053135,0.0265038846 13.1866746,0.753829079 13.1866746,3.47986681 L13.1866746,7.60301887 L4.00724517,7.60301887 C1.79790193,7.60301887 0.00046359584,9.15209767 0.00046359584,11.0563152 L0.00046359584,56.5062153 C0.00046359584,58.4102331 1.79790193,59.9595117 4.00724517,59.9595117 L47.9559762,59.9595117 C50.1682556,59.9595117 51.9682437,58.4102997 51.9682437,56.5062153 L51.9682437,11.0563818 L51.968321,11.0563818 Z M16.8099851,3.14490566 L35.1579495,3.14490566 L35.1579495,12.243929 L16.8099851,12.243929 L16.8099851,3.14490566 Z M48.3391382,56.8408435 L3.61867459,56.8408435 L3.61867459,10.7260821 L13.186211,10.7260821 L13.186211,12.08697 C13.186211,13.7502553 14.4400832,15.5404661 17.1929926,15.5404661 L34.7750966,15.5404661 C37.4056166,15.5404661 38.7819554,13.8031299 38.7819554,12.08697 L38.7819554,10.7260821 L48.3389837,10.7260821 L48.3389837,56.8408435 L48.3391382,56.8408435 Z" id="Shape"></path>
                    </g>
                </g>
            </g>
        </g>
    </g>
</svg>