<?xml version="1.0" encoding="UTF-8"?>
<svg width="60px" height="60px" viewBox="0 0 60 60" version="1.1" xmlns="http://www.w3.org/2000/svg" xmlns:xlink="http://www.w3.org/1999/xlink">
    <!-- Generator: Sketch 45.2 (43514) - http://www.bohemiancoding.com/sketch -->
    <title>品质</title>
    <desc>Created with Sketch.</desc>
    <defs></defs>
    <g id="index" stroke="none" stroke-width="1" fill="none" fill-rule="evenodd">
        <g id="Desktop" transform="translate(-125.000000, -2802.000000)" fill-rule="nonzero" fill="#FF5542">
            <g id="sector-promise" transform="translate(0.000000, 2641.000000)">
                <g id="正品保证" transform="translate(125.000000, 161.000000)">
                    <g id="品质">
                        <path d="M59.5086416,19.8476592 L32.2879506,57.8395903 C31.7868986,58.6434493 30.925736,59.1285355 30.0005311,59.1285355 C29.0755072,59.1285355 28.2141636,58.6434493 27.7131115,57.8395903 L0.492480898,19.8476592 C-0.0418901511,18.9915659 -0.086315441,17.9046308 0.374898744,17.0045409 L15.1176364,1.52633977 C15.5894741,0.605655715 16.5151619,0.0298927447 17.5226985,0.0298927447 L42.140828,0.0298927447 C43.1309808,0.0298927447 44.0441137,0.586372086 44.5227117,1.48228074 L59.6029247,16.9604818 C60.0880416,17.8675613 60.0522478,18.9778365 59.5086416,19.8476592 Z M29.8822246,51.5021412 L40.2747244,19.7294611 L19.63797,19.7294611 L29.8822246,51.5021412 Z M27.3954345,52.6783802 L16.7717542,19.7294611 L3.78810101,19.7294611 L27.3954345,52.6783802 Z M17.5226985,2.84417921 L4.12038528,16.9152995 L17.0880429,16.9152995 L27.2958398,2.84424161 L17.5226985,2.84417921 L17.5226985,2.84417921 Z M20.4566992,16.9152995 L39.9051374,16.9152995 L30.1121376,3.60404155 L20.4566992,16.9152995 Z M42.140828,2.84417921 L32.9565633,2.84417921 L43.2945577,16.8960783 L43.2759666,16.9152995 L55.8495309,16.9152995 L42.140828,2.84417921 Z M43.1668953,19.7294611 L32.2095424,53.2308031 L56.2135648,19.7294611 L43.1668953,19.7294611 Z" id="Shape"></path>
                    </g>
                </g>
            </g>
        </g>
    </g>
</svg>