<?xml version="1.0" standalone="no"?><!DOCTYPE svg PUBLIC "-//W3C//DTD SVG 1.1//EN" "http://www.w3.org/Graphics/SVG/1.1/DTD/svg11.dtd"><svg class="icon" width="128px" height="128.00px" viewBox="0 0 1024 1024" version="1.1" xmlns="http://www.w3.org/2000/svg"><path d="M555.467456 511.18174l457.143281-456.95704c12.34618-12.389159 12.344133-32.445945-0.020466-44.942551-12.370739-12.407578-32.554416-12.323667-44.921062-0.063445L511.196194 465.71321 56.286788 10.678961c-12.425998-12.280688-32.424456-12.472047-44.876036-0.040932C-0.978407 23.171474-0.955894 43.166862 11.434288 55.618442l457.097233 457.199563L11.387216 969.775045c-12.34618 12.389159-12.344133 32.445945 0.020466 44.942551 12.370739 12.407578 32.554416 12.323667 44.921062 0.063445L512.802783 558.286536l454.909406 455.035272c12.425998 12.280688 32.424456 12.472047 44.876036 0.040932 12.389159-12.533445 12.366646-32.528833-0.022513-44.980413L555.467456 511.18174z" fill="#2c2c2c" /></svg>