<?xml version="1.0" encoding="UTF-8"?>
<svg width="60px" height="50px" viewBox="0 0 60 50" version="1.1" xmlns="http://www.w3.org/2000/svg" xmlns:xlink="http://www.w3.org/1999/xlink">
    <!-- Generator: Sketch 45.2 (43514) - http://www.bohemiancoding.com/sketch -->
    <title>相机-2</title>
    <desc>Created with Sketch.</desc>
    <defs></defs>
    <g id="index" stroke="none" stroke-width="1" fill="none" fill-rule="evenodd">
        <g id="Desktop" transform="translate(-533.000000, -3027.000000)" fill-rule="nonzero" fill="#FF5542">
            <g id="sector-promise" transform="translate(0.000000, 2641.000000)">
                <g id="关于色差" transform="translate(533.000000, 386.000000)">
                    <g id="相机-2">
                        <path d="M55.0283482,7.13170988 L42.5511916,7.13170988 L40.8399991,3.69121703 L40.8261433,3.66335878 C40.6945131,3.41263461 40.5767387,3.18280412 40.4728201,2.9738673 C39.6414715,1.34416016 38.9833206,0.0557164834 36.7248236,0.0557164834 L22.6334651,0.0557164834 C20.3541844,0.0557164834 19.6059707,1.53916785 18.8161896,3.10619395 C18.7261268,3.28727252 18.6291361,3.47531565 18.5252176,3.67032335 L16.8070972,7.13170988 L4.32301262,7.13170988 C1.96752498,7.13170988 0.0484953339,9.06089312 0.0484953339,11.4288437 L0.0484953339,45.4158985 C0.0484953339,47.7838491 1.96752498,49.7130323 4.32301262,49.7130323 L55.0283482,49.7130323 C57.3838358,49.7130323 59.3028655,47.7838491 59.3028655,45.4158985 L59.3028655,11.4288437 C59.3028655,9.06089312 57.3838358,7.13170988 55.0283482,7.13170988 Z M56.3931454,45.4158985 C56.3931454,46.1680711 55.7834898,46.787917 55.0283482,46.787917 L4.32301262,46.787917 C3.5747989,46.787917 2.95821537,46.1750356 2.95821537,45.4158985 L2.95821537,11.4288437 C2.95821537,10.6766711 3.567871,10.0568253 4.32301262,10.0568253 L18.6014245,10.0568253 L21.1093261,5.00751895 C21.2132446,4.80554669 21.3102353,4.610539 21.407226,4.42946043 C22.1415839,2.98083186 22.1762234,2.98083186 22.6334651,2.98083186 L36.7178957,2.98083186 C37.0365793,2.98083186 37.1197142,3.02261923 37.1197142,3.02261923 C37.2582723,3.10619395 37.6185233,3.80264999 37.8748558,4.3110629 C37.9857023,4.52696428 38.1034767,4.76375933 38.2420348,5.01448351 L40.7499363,10.0568253 L55.0283482,10.0568253 C55.7765619,10.0568253 56.3931454,10.6697066 56.3931454,11.4288437 L56.3931454,45.4158985 L56.3931454,45.4158985 Z" id="Shape"></path>
                        <path d="M30.1710256,12.9192596 C21.6150631,12.9192596 14.6802304,19.8907846 14.6802304,28.4920167 C14.6802304,37.0932488 21.6150631,44.0717384 30.1710256,44.0717384 C38.7269881,44.0717384 45.6687487,37.1002134 45.6687487,28.4920167 C45.6687487,19.8907846 38.7269881,12.9192596 30.1710256,12.9192596 L30.1710256,12.9192596 Z M30.1710256,40.9516153 C23.3262556,40.9516153 17.7770038,35.3730024 17.7770038,28.4920167 C17.7770038,21.611031 23.3262556,16.0324181 30.1710256,16.0324181 C37.0157956,16.0324181 42.5650474,21.611031 42.5650474,28.4920167 C42.5650474,35.3730024 37.0157956,40.9516153 30.1710256,40.9516153 Z M47.2136715,12.9192596 L47.2136715,16.0324181 L53.4141464,16.0324181 L53.4141464,12.9192596 L47.2136715,12.9192596 Z" id="Shape"></path>
                    </g>
                </g>
            </g>
        </g>
    </g>
</svg>