<?xml version="1.0" encoding="utf-8"?>
<!-- Generator: Adobe Illustrator 19.0.0, SVG Export Plug-In . SVG Version: 6.00 Build 0)  -->
<svg version="1.1" id="图层_1" xmlns="http://www.w3.org/2000/svg" xmlns:xlink="http://www.w3.org/1999/xlink" x="0px" y="0px"
	 viewBox="0 0 595.3 793.7" style="enable-background:new 0 0 595.3 793.7;" xml:space="preserve">
<style type="text/css">
	.st0{clip-path:url(#XMLID_185_);fill:#B0D190;}
	.st1{clip-path:url(#XMLID_185_);fill:#8BA86D;}
	.st2{clip-path:url(#XMLID_185_);fill:#99BB78;}
	.st3{clip-path:url(#XMLID_185_);fill:#5A8A5A;}
	.st4{clip-path:url(#XMLID_185_);fill:#A5D082;}
	.st5{clip-path:url(#XMLID_185_);fill:#A3CDE1;}
	.st6{clip-path:url(#XMLID_185_);fill:#78966C;}
	.st7{clip-path:url(#XMLID_185_);fill:#BEDC96;}
	.st8{clip-path:url(#XMLID_185_);fill:#C5DDA7;}
	.st9{clip-path:url(#XMLID_185_);fill:#243E2C;}
	.st10{clip-path:url(#XMLID_185_);fill:#334B33;}
	.st11{clip-path:url(#XMLID_185_);fill:#5C773F;}
	.st12{clip-path:url(#XMLID_185_);fill:#4F553E;}
	.st13{clip-path:url(#XMLID_185_);fill:#516B40;}
	.st14{clip-path:url(#XMLID_185_);fill:#453116;}
	.st15{clip-path:url(#XMLID_185_);fill:#857A75;}
	.st16{clip-path:url(#XMLID_185_);fill:#F2BEBA;}
	.st17{clip-path:url(#XMLID_185_);fill:#6C3C38;}
	.st18{clip-path:url(#XMLID_185_);fill:#6E6972;}
	.st19{clip-path:url(#XMLID_185_);fill:#97969F;}
	.st20{clip-path:url(#XMLID_185_);fill:#5A505F;}
	.st21{clip-path:url(#XMLID_185_);fill:#B83E37;}
	.st22{clip-path:url(#XMLID_185_);fill:#601914;}
	.st23{clip-path:url(#XMLID_185_);fill:#8D483A;}
	.st24{clip-path:url(#XMLID_185_);fill:#591B13;}
	.st25{clip-path:url(#XMLID_185_);fill:#769E46;}
	.st26{clip-path:url(#XMLID_185_);fill:#365C37;}
	.st27{clip-path:url(#XMLID_185_);fill:#6CAAC0;}
	.st28{clip-path:url(#XMLID_185_);fill:#FFFFFF;}
	.st29{clip-path:url(#XMLID_185_);}
	.st30{fill:#334B33;}
	.st31{fill:#453116;}
	.st32{clip-path:url(#XMLID_185_);fill:#738D56;}
	.st33{clip-path:url(#XMLID_185_);fill:#39643A;}
	.st34{clip-path:url(#XMLID_185_);fill:#667A5A;}
	.st35{clip-path:url(#XMLID_185_);fill:#B0C296;}
	.st36{clip-path:url(#XMLID_185_);fill:#A4BA88;}
	.st37{clip-path:url(#XMLID_185_);fill:#487A8C;}
	.st38{clip-path:url(#XMLID_185_);fill:#7EC1D3;}
	.st39{clip-path:url(#XMLID_185_);fill:#D6DCD8;}
	.st40{clip-path:url(#XMLID_185_);fill:#9DD6E4;}
	.st41{clip-path:url(#XMLID_185_);fill:#B8BBB9;}
	.st42{clip-path:url(#XMLID_185_);fill:#9BA689;}
	.st43{clip-path:url(#XMLID_185_);fill:#95AE7B;}
	.st44{clip-path:url(#XMLID_185_);fill:#E0E0A3;}
	.st45{clip-path:url(#XMLID_185_);fill:#8B998B;}
	.st46{clip-path:url(#XMLID_185_);fill:#A0BE81;}
	.st47{clip-path:url(#XMLID_185_);fill:#E0E066;}
	.st48{clip-path:url(#XMLID_185_);fill:#E6E259;}
	.st49{clip-path:url(#XMLID_185_);fill:#EAE248;}
	.st50{clip-path:url(#XMLID_185_);fill:#050101;}
	.st51{clip-path:url(#XMLID_185_);fill:#B7B6B2;}
</style>
<g id="XMLID_3_">
	<defs>
		<rect id="XMLID_2_" width="595.3" height="798.2"/>
	</defs>
	<clipPath id="XMLID_185_">
		<use xlink:href="#XMLID_2_"  style="overflow:visible;"/>
	</clipPath>
	<rect id="XMLID_73_" x="0" y="258.3" class="st0" width="595.3" height="540"/>
	<path id="XMLID_124_" class="st1" d="M357.7,648c0,0-9.1-53,26.4-64.2c35.5-11.2,35.5-11.2,35.5-11.2l0,0l83.2-44.3
		c0,0,2.4-48.6-15.2-58.1c-17.5-9.5-17.5-9.5-17.5-9.5s52.1,93.5-125.9,98.6C344.3,559.2,303.2,616.9,357.7,648z"/>
	<path id="XMLID_113_" class="st2" d="M81,528.3C123,527,222.4,511,222.4,511c5.6-2,95.6-5,95.6-5s85-8,93-17s5-2,8-9s3-7,3-7
		l10.3-41.3l-4.6,48.3c-16.7,25-119.5,48.3-119.5,48.3L157,566.7c0,0-124,24.7-137,70.5S7,683,7,683l-7,44C0,727,39,529.5,81,528.3z
		"/>
	<path id="XMLID_121_" class="st3" d="M352.3,556c0,0-11.5-7.4-8.7,33c2.7,40.4-7.9,39,14.1,59s136,35.3,139.3,35s78.7,2.3,86,6.3
		s12.3,13.8,12.3,13.8l0,59.9l-176.9-46.7c-38,0.3-38,0.3-38,0.3L322.3,700c0,0,1.4,2.7-3.9,0c-5.3-2.7-12-5.3-16.3-7.3
		S277,679,277,679c-4.7-3.7-17.5-21.7-16.8-37c0.8-15.3,41.8-53,41.8-53L352.3,556z"/>
	<polygon id="XMLID_109_" class="st1" points="479.5,305 605.8,308.9 604.7,264.4 469.5,272.5 	"/>
	<path id="XMLID_98_" class="st2" d="M275.1,660.3c-23.4,12.8,23.8,12,23.8,12l65,24c15,1,20,0,20,0s50-0.1,55,0.4
		c5,0.6-8-0.4,5,0.6s10-4,18,0s44,18,55,22c11,4,45,14,55,21s45,33,45,33l-38,35l-146,8l-178.8-28.2l-51.4-39.8c0,0-27-70-19.4-82.5
		c7.5-12.5,8.5-22.1,8.5-22.1S291.6,543,330,550s-44.1,63.3-44.1,63.3S306.3,643.3,275.1,660.3z"/>
	<path id="XMLID_96_" class="st2" d="M65.2,793.8c0,0,18.4-40.6,37.4-66.7c19-26.1,19-26.1,19-26.1l81.6-33l62.9-112.5
		c0,0-111.4,34.5-141.7,41.5s-33.6,45-33.6,45c-5.7,18.6-35.5,108-54.5,113s-24.5,13-24.5,13L2,793.7L65.2,793.8z"/>
	<polygon id="XMLID_66_" class="st4" points="13.5,429.5 59.8,461.5 150.5,476 264.5,459.5 317.5,420.1 330,382.5 257.5,338.1 
		181.5,323.1 107.5,339.1 38.2,345.5 	"/>
	<polygon id="XMLID_88_" class="st1" points="106.4,454 108.5,457.4 243.9,450.3 287,427.8 282.5,424.3 240.2,443.6 168.9,449.8 	
		"/>
	<polygon id="XMLID_34_" class="st5" points="0,0 0,201.4 595.3,206.4 595.3,0 	"/>
	<path id="XMLID_39_" class="st6" d="M187.8,193c0,0,20.8-12.2,51.1-21.7c41.6-13,100.9-21,148.6,14.8C470,248,470,248,470,248l0,0
		L25,236L187.8,193z"/>
	<path id="XMLID_40_" class="st7" d="M595.3,179c0,0-63.3-46.8-103.3-46.4s-40,0.4-40,0.4s-32,31-54,46s-22,15-22,15s-31,22-50,24
		s-106.8,26-106.8,26C205,264,205,264,205,264h390.3V179z"/>
	<path id="XMLID_42_" class="st8" d="M6.7,192.1c0,0,110-68.4,151-29.7s41,38.7,41,38.7s67,57.2,77,61.1s10,3.9,10,3.9l0,0
		l107.2,53.4l34.8,14.1L2,335.5L6.7,192.1z"/>
	<path id="XMLID_32_" class="st9" d="M90.8,156.2c0,0,11.2-14.2,0.9-16.7S81.5,137,81.5,137s-8.5-7.5-10-9.5s9.5-3.5-1.5-2
		S52,122,47.5,128S37,136.5,35,136.5s-2,0-2,0l-2.9,1.5c0,0-9.1-5.9-9.1,2.6c0,8.4-0.4,18.7-0.4,18.7l24.4,7.6L90.8,156.2z"/>
	<path id="XMLID_33_" class="st10" d="M111.7,167c6.8,2.5,8.8,12,8.3,14s5.2-16.5,12.9-11c7.6,5.5,7.6,5.5,7.6,5.5L145,189
		c-7.5,5.5-14.8,11-14.8,11s26.8-3.8,22.8,6.4c-4,10.1-8.2,17.1-14.1,18.1s-5.9,1-5.9,1l0,0L117.9,236L99,228.5l-7.2-35
		C91.8,193.5,104.9,164.5,111.7,167z"/>
	<path id="XMLID_30_" class="st11" d="M117.4,227c-1.6-1.4,12.2,0.7-1.6-1.4s-13.8-2.1-13.8-2.1l-6.4-7.8v-23
		c9.5-4.2,7.4-20.7,6.9-22.3s-0.5-1.6-0.5-1.6l-6.4-4.2l-31.3,3.2c0,0-0.5-31.8-18.5-3.2S25.2,197,15.6,197s-9.5,0-9.5,0l0,0
		c0,0-17.5-13.5-24.9,3.9s-12.7,20.7-12.7,26.2c0,5.5-11.7,3.4-12.2,14.5c-0.5,11.1-9,13.6,3.2,26.2c12.2,12.6,32.3,17.9,32.3,17.9
		s-24.9,9.9-25.4,19.8c-0.5,9.9-0.5,9.9-0.5,9.9s15.9,2.5,19.1,3.9s29.7,8.7,29.7,8.7l78.9-11.5c0,0,32.3-30.2,32.9-37.9
		S118.9,228.4,117.4,227z"/>
	<path id="XMLID_29_" class="st12" d="M112.6,253"/>
	<path id="XMLID_28_" class="st10" d="M2.3,333.4c10.1,6.7,10.1,6.7,10.1,6.7l20.8-14.8c0,0,14.8,2,18.1,7.4c3.4,5.4-1.3,4,3.4,5.4
		s24.9-5.4,24.9-5.4s-15.4,8.7-7.4,18.1c8.1,9.4,8.1,9.4,8.1,9.4l18.8-17.5c0,0,8.1-8.7,12.1,0s4,8.7,4,8.7s14.8-5.4,15.4-8.7
		s0-3,0-6.2c0-3.2-2-26.7-4-27.7s-2-1-2-1s16.8-0.7-2-11.4c-18.8-10.7,8.9-11.3,8.9-11.3s19.1-18.6,4.5-23.7
		c-14.6-5-17.6,4.5-17.6,4.5s9.1-25.6-19.6-6c0,0,9.6,13.1,5,20.6s-15.6,19.6-25.7,21.7s-38.3,16.5-49.4,14.8s-11.1-1.7-11.1-1.7
		l0,0l-20.7,6L2.3,333.4z"/>
	<path id="XMLID_27_" class="st9" d="M65.8,174.4c0,0,16.8-10.1,13.9-18.2c-2.9-8.1,11.1,0,11.1,0c2.9,2,5.9,16.2,7.6,18.2
		c1.8,2,1.8-1.6,1.8,2c0,3.5,11.1,9.1,4.1,17.1c-7,8.1-4.1,14.6-1.8,14.6c2.3,0,15.3,2,15.3,2c-4.1,3-4.1,3-4.1,3l-11.1,14.1
		l-1.8,7.1c0,0,11.8,15.7,10.9,18.7s-16.1,7.1-16.1,7.1s5.2-28.3-10.6-47s-15.8-18.6-15.8-18.6L52.7,189l-10-7.6L65.8,174.4z"/>
	<path id="XMLID_26_" class="st13" d="M79,148.2c-13.6,5.5-13.6,5.5-13.6,5.5s-5.5-0.5-7.6,0s-2,0.5-2,0.5l-8.6-6
		c-3.5,1-3.5,1-3.5,1l-10.6,3.5c0,0-11.6,5.1-12.6,6.6c-1,1.5-1,1.5-1,1.5l0,0c0,0-1-13.1-10.1-6.3c-9.1,6.8-9.1,6.8-9.1,6.8v7.6
		c0.5,3,0.5,3,0.5,3l-0.5,8.1c0,0-14.6-4-16.1,0c-1.5,4-10.1,8.1-9.1,11.1c1,3,0-0.5,1,3s16.1,9.1,16.1,9.1h30.2l25.7-5l16.1-11.6
		L79,169.4l1.7-1.8l4.3-11.3"/>
	<path id="XMLID_25_" class="st14" d="M38.2,324.2v54.2h10.1c3.5,0.6,3.5,0.6,3.5,0.6l-0.5-49.2C51.4,329.8,44.3,320,38.2,324.2z"/>
	<path id="XMLID_22_" class="st14" d="M30.1,331.5"/>
	<polygon id="XMLID_11_" class="st15" points="202.6,385.2 202.6,411 205.9,411 235.9,385.2 235.9,356.5 	"/>
	<polygon id="XMLID_13_" class="st16" points="59.8,351.1 61.2,410.1 205.9,411 205.9,331.1 63.4,337.9 	"/>
	<polygon id="XMLID_12_" class="st17" points="207.2,309 194.9,349.7 212.7,349.7 222.9,315.8 219.2,299.1 	"/>
	<polygon id="XMLID_5_" class="st18" points="133.9,320 209.2,320 200,351.1 91.8,351.1 	"/>
	<polygon id="XMLID_6_" class="st19" points="224.9,292 209.4,321.4 65.1,320.4 82.5,293.8 	"/>
	<path id="XMLID_1_" class="st20" d="M53.1,351.1h65.8c-2.6-18.5,43-31.1,43-31.1H65.3"/>
	<polygon id="XMLID_9_" class="st21" points="62.5,363 62.5,389.2 72.2,389.2 72.2,408.6 86.9,408.6 86.9,388.7 117.3,388.3 
		117.3,408.6 132.1,408.6 132.1,388.5 177.5,388.5 177.5,407 190.3,407.5 190.3,387.6 198,387.4 187.8,356.5 64,356.5 	"/>
	<polygon id="XMLID_8_" class="st22" points="63.6,351.1 62.5,361.9 167.4,361.9 188.9,361.9 196.7,351.1 	"/>
	<polygon id="XMLID_10_" class="st23" points="189.2,351.1 187.8,387.4 199.1,387.4 200,351.1 	"/>
	<polygon id="XMLID_7_" class="st24" points="214.9,315.6 202.6,350 204.8,387.4 235.9,368 234.5,315.6 223.6,294.5 213.2,314.3 	
		"/>
	<rect id="XMLID_14_" x="96.9" y="388.6" class="st18" width="10.6" height="6.8"/>
	<path id="XMLID_16_" class="st25" d="M387.2,295.7c-1-0.9,8,0.5-1-0.9c-9-1.4-9-1.4-9-1.4l-4.2-5.1v-15.1
		c6.3-2.8,4.9-13.6,4.5-14.6c-0.3-1-0.3-1-0.3-1l-4.2-2.8l-20.5,2.1c0,0-0.3-20.9-12.2-2.1c-11.8,18.8-13.6,21.2-19.8,21.2
		c-6.3,0-6.3,0-6.3,0l0,0c0,0-11.5-8.8-16.3,2.5c-4.9,11.4-8.3,13.6-8.3,17.2c0,3.6-7.6,2.2-8,9.5c-0.3,7.3-5.9,8.9,2.1,17.2
		c8,8.2,21.2,11.7,21.2,11.7s-16.3,6.5-16.7,13c-0.3,6.5-0.3,6.5-0.3,6.5s10.4,1.6,12.5,2.6c2.1,0.9,19.5,5.7,19.5,5.7l51.8-7.5
		c0,0,21.2-19.8,21.5-24.9C393.5,324.4,388.3,296.7,387.2,295.7z"/>
	<path id="XMLID_17_" class="st12" d="M384.1,312.8"/>
	<path id="XMLID_15_" class="st26" d="M311.8,365.5c6.6,4.4,6.6,4.4,6.6,4.4l13.7-9.7c0,0,9.7,1.3,11.9,4.8s-0.9,2.6,2.2,3.5
		s16.3-3.5,16.3-3.5s-10.1,5.7-4.8,11.9s5.3,6.2,5.3,6.2l12.3-11.5c0,0,5.3-5.7,7.9,0s2.6,5.7,2.6,5.7s9.7-3.5,10.1-5.7s0-2,0-4.1
		c0-2.1-1.3-17.5-2.6-18.2s-1.3-0.7-1.3-0.7s11-0.4-1.3-7.5s5.8-7.4,5.8-7.4s12.5-12.2,3-15.5c-9.6-3.3-11.6,3-11.6,3
		s5.9-16.8-12.9-3.9c0,0,6.3,8.6,3.3,13.5c-3,5-10.2,12.9-16.9,14.2s-25.1,10.8-32.4,9.7s-7.3-1.1-7.3-1.1l0,0l-13.5,4L311.8,365.5z
		"/>
	<path id="XMLID_21_" class="st14" d="M335.3,361.9V393h6.6c2.3,0.3,2.3,0.3,2.3,0.3l-0.3-28.3C344,365.1,339.3,359.4,335.3,361.9z"
		/>
	<path id="XMLID_20_" class="st14" d="M330,364.3"/>
	<path id="XMLID_23_" class="st27" d="M59.6,793.8c0,0,40.1-116.2,113.5-125.8c0,0,17.7-10.2-29.7-34.8s138.1-83,138.1-83
		s77.1-27.9,91.7-24.3c14.6,3.6,91.7-24.3,91.7-24.3s20.1-6.7,14.4-21.7c-5.7-15-37.2-41.2-42.1-44.7c-4.9-3.5-4.9-3.5-4.9-3.5
		s4-11.4,31.4-13.5c27.4-2,2.5-3.7,2.5-3.7s-31.4,9.2-0.8,29s30.6,19.8,30.6,19.8l0,0c0,0,15.4,24.3-0.4,36.2
		c-15.8,11.9-15.8,11.9-15.8,11.9l-65.8,28c0,0-186.8,41.2-177.6,99.3s-10.4,65.4-10.4,65.4s34.1,58.4,61.6,54
		c27.4-4.3,53.7,13.2,55.5,21.2c1.9,8.1,3.7,17.3,3.7,17.3L59.6,793.8z"/>
	<polygon id="XMLID_24_" class="st20" points="222.9,292.1 227,292 243.3,320 245.7,329.3 235,335.5 234.6,317.4 223.6,294.5 	"/>
	<path id="XMLID_31_" class="st9" d="M132.9,234.5c0,0-12.6,3.5-12.2,5.7c0.4,2.2-9,12.8-9,12.8s6.5,9.6,10.6,17.5s4.1,7.9,4.1,7.9
		l-8.5,13v3l23.7-1.4c0,0,14.5-10.7,16-10.9c1.5-0.2,4.3-2.2,4.3-2.2s1.7-13.5-8.8-12s-10.5,1.5-10.5,1.5s25-8.6,23.5-22.6
		s-1.5-13.9-1.5-13.9s-13.5,2.5-14,11s-0.5,8.5-0.5,8.5S157.7,214,132.9,234.5z"/>
	<path id="XMLID_35_" class="st28" d="M246.8,92.8c21.5,10,23-8.9,23-8.9s17-3.1,21,3.4s4,6.5,4,6.5l0,0c0,0,13-5.2,13.5,1.9
		s-10,15.6-10,15.6c-11,2.5-11,2.5-11,2.5s-11.5,0.5-15,4.5s5.5,3.5-3.5,4s-5.5,1.5-9,0.5s-27.5,0.4-27.5,0.4
		c-7.5-1.9-52-5.4-52.5-6.9s-0.5-1.5-0.5-1.5s2.5,3.5,0,0s-2.5-3.5-2.5-3.5l0,0l31.5,5l4.5-1.5l3-0.5
		C215.8,114.3,225.3,82.8,246.8,92.8z"/>
	<path id="XMLID_37_" class="st28" d="M82.6,81.5c0,0,7.5-23.6,20.5-18.6c0,0,9-22.4,19.5-10.9c0,0,11.8-2.3,10.8,10.5
		c0,0,11.8-6,14.5,2.6c0,0,12.5,4.4,14.8,3.4s2.3-1,2.3-1s3.3-0.3,5.8,4s2.5,4.3,2.5,4.3l0,0c0,0,23.8,3,25.5,3s1.8,0,1.8,0
		l-73.8,2.8C126.6,81.5,87.6,93.2,82.6,81.5z"/>
	<path id="XMLID_36_" class="st28" d="M701.5,88.5"/>
	<path id="XMLID_38_" class="st28" d="M485.1,66.5c21.5,15,16.5,5.5,16.5,5.5c6.5-1,6.5-1,6.5-1l-31,4c0,0-21.5-6-32-3.5
		s-13,3.5-13,3.5h-15c-12.5,1-10,0.5-16.5,0c-6.5-0.5-16.5-7.3-16.5-7.3s11.5,7.8,32.5,3.3S463.6,51.5,485.1,66.5z"/>
	<g id="XMLID_44_" class="st29">
		<polygon id="XMLID_41_" class="st30" points="550.7,277.1 559.3,251.3 563.7,251.3 574.3,277.1 570.7,279.1 552.3,279.1 		"/>
		<rect id="XMLID_43_" x="561" y="273.5" class="st31" width="3" height="15.7"/>
	</g>
	<polygon id="XMLID_47_" class="st32" points="569.7,268.3 578.3,239 582.7,239 593.3,268.3 589.7,270.7 571.3,270.7 	"/>
	<rect id="XMLID_46_" x="580" y="267.6" class="st14" width="3" height="20.7"/>
	<polygon id="XMLID_51_" class="st33" points="514,280.6 522.7,254.8 527,254.8 537.7,280.6 534,282.6 515.7,282.6 	"/>
	<rect id="XMLID_50_" x="524.3" y="277.1" class="st14" width="3" height="15.7"/>
	<polygon id="XMLID_48_" class="st13" points="533,271.1 541.7,232.5 546,232.5 556.7,271.1 553,274.2 534.7,274.2 	"/>
	<rect id="XMLID_45_" x="543.3" y="268.2" class="st14" width="3" height="16.3"/>
	<g id="XMLID_55_" class="st29">
		<polygon id="XMLID_57_" class="st30" points="500.7,278.4 509.3,252.7 513.7,252.7 524.3,278.4 520.7,280.5 502.3,280.5 		"/>
		<rect id="XMLID_56_" x="511" y="274.9" class="st31" width="3" height="15.7"/>
	</g>
	<polygon id="XMLID_54_" class="st33" points="464,282 472.7,256.2 477,256.2 487.7,282 484,284 465.7,284 	"/>
	<rect id="XMLID_53_" x="474.3" y="278.4" class="st14" width="3" height="15.7"/>
	<polygon id="XMLID_52_" class="st13" points="483,272.5 491.7,233.9 496,233.9 506.7,272.5 503,275.6 484.7,275.6 	"/>
	<rect id="XMLID_49_" x="493.3" y="266.5" class="st14" width="3" height="18.1"/>
	<polygon id="XMLID_65_" class="st32" points="465.2,315.6 479.2,273.9 486.2,273.9 503.5,315.6 497.6,318.9 467.9,318.9 	"/>
	<rect id="XMLID_64_" x="481.9" y="309.9" class="st14" width="4.9" height="25.4"/>
	<g id="XMLID_61_" class="st29">
		<polygon id="XMLID_63_" class="st30" points="434.2,305.1 450.3,257.3 458.4,257.3 478.2,305.1 471.4,308.9 437.3,308.9 		"/>
		<rect id="XMLID_62_" x="453.4" y="300.5" class="st31" width="5.6" height="36.4"/>
	</g>
	<polygon id="XMLID_60_" class="st33" points="400.4,315.5 416.5,267.6 424.5,267.6 444.3,315.5 437.5,319.3 403.5,319.3 	"/>
	<rect id="XMLID_59_" x="419.6" y="308.9" class="st14" width="5.6" height="29.1"/>
	<polygon id="XMLID_58_" class="st1" points="61.2,410.1 112.6,445.3 235.9,445.3 205.9,411 	"/>
	<polygon id="XMLID_68_" class="st1" points="235.9,385.2 275.7,395.4 235.9,445.3 187.8,425 	"/>
	<path id="XMLID_69_" class="st1" d="M38.2,378.4l22.7,19.2l-0.3-13l-8.8-9.2C51.8,375.5,45.8,380.7,38.2,378.4z"/>
	<path id="XMLID_67_" class="st1" d="M30.7,375.5"/>
	<path id="XMLID_70_" class="st34" d="M187.8,193l54.8,44.7l28.2-7.3c0,0-38.7-48.6,25.9-69.9c0,0-52.7,3.4-75.4,17L187.8,193z"/>
	<path id="XMLID_71_" class="st35" d="M242.7,237.7c0,0,67.3-16.8,71-17.6c3.8-0.8,47.3-21.9,47.3-21.9s60.3-40.6,61.3-41.3
		c1-0.7,29.7-24,29.7-24s15.3-8,22.3-5.7s7,2.3,7,2.3l19.3,3.5c0,0-65,27.5-68.7,39.5s-3.7,12-3.7,12L418,210.3
		c-0.7,8.3-22.3,29-22.3,33.7s0,4.7,0,4.7L384.1,264l-102.7,0.4C281.4,264.4,245.7,247.1,242.7,237.7z"/>
	<path id="XMLID_72_" class="st36" d="M239.7,228"/>
	<path id="XMLID_19_" class="st13" d="M362.1,244c-8.9,3.6-8.9,3.6-8.9,3.6s-3.6-0.3-5,0s-1.3,0.3-1.3,0.3l-5.6-4
		c-2.3,0.7-2.3,0.7-2.3,0.7l-6.9,2.3c0,0-7.6,3.3-8.3,4.3s-0.7,1-0.7,1l0,0c0,0-0.7-8.6-6.6-4.1c-5.9,4.5-5.9,4.5-5.9,4.5v5
		c0.3,2,0.3,2,0.3,2l-0.3,5.3c0,0-9.6-2.6-10.6,0c-1,2.6-6.6,5.3-5.9,7.3s0-0.3,0.7,2c0.7,2.3,10.6,5.9,10.6,5.9h19.8l16.9-3.3
		l10.6-7.6l9.6-11.2l1.1-1.2l2.8-7.4"/>
	<path id="XMLID_18_" class="st9" d="M353.4,261.2c0,0,11-6.6,9.1-11.9s7.3,0,7.3,0c1.9,1.3,3.8,10.7,5,11.9c1.2,1.3,1.2-1,1.2,1.3
		c0,2.3,7.3,5.9,2.7,11.2s-2.7,9.6-1.2,9.6c1.5,0,10,1.3,10,1.3c-2.7,2-2.7,2-2.7,2l-7.3,9.3l-1.2,4.6c0,0,7.7,10.3,7.1,12.3
		c-0.6,1.9-10.6,4.7-10.6,4.7s3.4-18.6-7-30.8c-10.4-12.2-10.4-12.2-10.4-12.2l-10.8-3.6l-6.5-5L353.4,261.2z"/>
	<path id="XMLID_75_" class="st28" d="M93.7,424.4h118.4c0,0,37.5-1.1,55.9-16c11.7-9.5,14.1-18,14.1-18v12L265.6,417
		c0,0-31.9,14.7-40.4,12.7l-131.6-1.3V424.4z"/>
	<path id="XMLID_74_" class="st28" d="M95.3,440.9h118.4c0,0,37.5-1.1,55.9-16c11.7-9.5,14.1-18,14.1-18v12l-16.4,14.7
		c0,0-31.9,14.7-40.4,12.7l-131.6-1.3V440.9z"/>
	<rect id="XMLID_77_" x="111.7" y="415.3" class="st28" width="3.8" height="36.2"/>
	<rect id="XMLID_76_" x="228.7" y="414.3" class="st28" width="3.8" height="36.2"/>
	<rect id="XMLID_78_" x="183.5" y="416.3" class="st28" width="5.5" height="36.2"/>
	<rect id="XMLID_79_" x="251.7" y="408.6" class="st28" width="3.8" height="36.2"/>
	<rect id="XMLID_80_" x="144.2" y="416.3" class="st28" width="3" height="36.2"/>
	<rect id="XMLID_81_" x="272.5" y="392" class="st28" width="2.9" height="40.4"/>
	<polygon id="XMLID_82_" class="st1" points="111.7,451.5 126.4,472.1 132.9,472.1 115.5,451.5 	"/>
	<polygon id="XMLID_84_" class="st1" points="144.2,452.5 154.7,472.1 161.8,470.7 147.2,452.5 	"/>
	<polygon id="XMLID_85_" class="st1" points="183.5,452.5 194.9,474.3 203.5,472.1 189,452.5 	"/>
	<polygon id="XMLID_83_" class="st1" points="228.7,450.5 239.2,470.1 246.4,468.7 231.7,450.5 	"/>
	<polygon id="XMLID_86_" class="st1" points="251.7,445.3 261.9,460.3 268.8,459.2 254.6,445.3 	"/>
	<polygon id="XMLID_87_" class="st1" points="272.4,432.4 281.7,447.3 288.1,446.2 275.1,432.4 	"/>
	<polygon id="XMLID_89_" class="st1" points="107.5,466 109.6,469.5 245,462.3 288.1,439.9 283.6,436.3 241.3,455.7 170,461.8 	"/>
	<path id="XMLID_92_" class="st37" d="M59.6,793.8l287.3,2.9c0,0-240.2,8.3-240.6-31.7s-0.4-40-0.4-40s48.7-55.1,79.3-57l-59,22
		C126.4,690,73.6,741.5,59.6,793.8z"/>
	<path id="XMLID_91_" class="st37" d="M45,846"/>
	<path id="XMLID_94_" class="st37" d="M164.5,637.1l-27.9-9.7c0,0-7.3-12.9,25.2-28.9c32.5-16,32.5-16,32.5-16l0,0l45.2-18
		l69.4-23.8c0,0-146.7,50.2-147.1,74.7S164.5,637.1,164.5,637.1z"/>
	<path id="XMLID_95_" class="st38" d="M193,589c0,0,116.7-57.8,59,16.6c0,0,56.1-41.3,167.5-68.4c0,0,68.8-21.2,73.8-35.8
		c5-14.6-12.6-39.1-31.1-43.9c0,0,43.5,31.9-39.9,58.2C422.3,515.7,315,526.6,193,589z"/>
	<path id="XMLID_93_" class="st38" d="M-91,550"/>
	<path id="XMLID_90_" class="st37" d="M199,770c-17-23-17-23-17-23s0-7,0-36s26.9-32,26.9-32s-38,15.4-19.4,50.7
		C189.5,729.7,216,793,199,770z"/>
	<path id="XMLID_99_" class="st39" d="M212,763h33.4c0,0-1-22-10-23s-23.4,4-23.4,4V763z"/>
	<path id="XMLID_100_" class="st39" d="M122.3,751.4c1.7,6.6-8.3,0.6,1.7,6.6s37.8,5,37.8,5v-19L122.3,751.4z"/>
	<path id="XMLID_97_" class="st39" d="M161.8,732.7l9.9-12.7c0,0-1.2,0,0-5c1.2-5-9.9-15-9.9-15h-8l-23.7,16.3L161.8,732.7z"/>
	<path id="XMLID_101_" class="st39" d="M275.7,781H302c0,0,8.4-21.9,6.9-22.2c-1.5-0.3-48.7,4.3-48.7,4.3L275.7,781z"/>
	<path id="XMLID_102_" class="st37" d="M199.5,663.8c0,0-20.7-27.8,24.3-49.8s17.1-30.2,17.1-30.2s20.6,6.7-32.6,45.9
		c0,0-7-1.7-15.4,29.4"/>
	<path id="XMLID_104_" class="st40" d="M297.6,566.7c0,0,59.8-32.7,86.5-30c26.7,2.7,52.9-18,52.9-18l-74.1,24
		C342,546.1,297.6,566.7,297.6,566.7z"/>
	<polygon id="XMLID_105_" class="st40" points="280.2,562.7 343.6,540.8 364.3,531.5 287,557.3 	"/>
	<path id="XMLID_103_" class="st41" d="M149.3,703.2c0,0,3,24.6,6.4,26.4c3.5,1.8,6.1,3.2,6.1,3.2l-6.3,1.6c0,0-9.1-0.6-10.1-1.6
		c-1-0.9-1-0.9-1-0.9l-8.6-4.7c0,0,1.9,0.2,0-1c-1.9-1.3-5.7-9.7-5.7-9.7L149.3,703.2z"/>
	<path id="XMLID_106_" class="st41" d="M132.9,749.4l5.5,3.1l18.9,10.6l4.5-0.1l-7.3,6.9l-11.3-1.1c-5.8-1.8-20-3.8-20.5-5.8
		s-3.8-9.2-3.3-9.5C120,753.3,127.6,746.5,132.9,749.4z"/>
	<path id="XMLID_107_" class="st41" d="M217.2,742.4l2.3,11.1c0,0,0.1,4,2.9,5.2s23,4.2,23,4.2s-3.2,3.8-4.7,4.3s-4.5,3.5-14.5,2.6
		s-12.2-2.4-13.3-4.6s-1-19.8-1-19.8L217.2,742.4z"/>
	<path id="XMLID_108_" class="st41" d="M260.2,763.1c0,0,1,10.8,1.8,12s1.8,5,5.5,6s9.9,4.5,13.7,4.3s11.8,0,11.8,0l9-4.3
		L260.2,763.1z"/>
	<path id="XMLID_110_" class="st42" d="M280.3,228l30.3,36.8c0,0-4.6-5.6-16.8,5.3c0,0-45.9-18.7-51.1-32.4L280.3,228z"/>
	<path id="XMLID_111_" class="st43" d="M644.5,162.5"/>
	<path id="XMLID_112_" class="st1" d="M335.3,394.7l10.2-1l17.1,0.3l25.2,7.4l26.5-1.1l21.2,17.9c0,0-6.9,12-20.6,14.8
		c-13.7,2.8-45.2,5.2-47.9,1.8c-2.7-3.4-0.6-24.1-0.6-24.1L335.3,394.7z"/>
	<path id="XMLID_114_" class="st1" d="M419.6,337.6l19,24.5l-3,8.7l11,7.8h28v-14.8l19.3,3l14.2,7.2l6.5-14.1c0,0,15.8,6.5,20.9,2.7
		c5.1-3.8,0-16.6,0-16.6h-25.1l-17.5-10.7h-5.3l6.3,10.7h-19.3l-12-9.3h-6.1l6.1,12.3l-22.3,0.4l-14.6-11.8H419.6z"/>
	<path id="XMLID_117_" class="st44" d="M330,637.2"/>
	<path id="XMLID_118_" class="st3" d="M247.8,734.3l87.5,9.8l50.1,19.1l70.8,22.2l81.5,8.5l-190.8,2.9c0,0-10.6-40.7-49.3-39.2
		C297.6,757.5,258.7,764.5,247.8,734.3z"/>
	<path id="XMLID_119_" class="st45" d="M236.5,703.2"/>
	<path id="XMLID_120_" class="st3" d="M238.9,663.8c0,0-16.7,34.1-12.9,40.3c3.8,6.1,24.3,35.8,24.3,35.8l30.7,2.6
		c0,0-47-31.9-44.6-50.9c2.5-19,2.5-19,2.5-19L238.9,663.8z"/>
	<path id="XMLID_116_" class="st27" d="M474.3,415.1c0,0,105.7-1.9,115.7-15.5s10-13.6,10-13.6s-29.3,12.1-53.7,14.5
		C522,403,522,403,522,403L474.3,415.1z"/>
	<path id="XMLID_115_" class="st3" d="M228.7,510.2c0,0-157.4,36.5-167.5,56.5s-10.2,20-10.2,20L6.3,663.8L2,674.6
		c0,0,7.7-68.6,18.3-75.9c10.7-7.3,10.7-7.3,10.7-7.3s31.2-54,38.2-54.7c7.1-0.7-3.6-0.7,7.1-0.7s10.7,0,10.7,0L228.7,510.2z"/>
	<path id="XMLID_122_" class="st3" d="M546.3,700"/>
	<path id="XMLID_123_" class="st0" d="M330,692.6c49.1,33,250,101.2,250,101.2l-123.8-8.5c0,0-197.2-63.2-200.7-121.4
		c-3.5-58.3,66.8-88.2,66.8-88.2S281,659.6,330,692.6z"/>
	<path id="XMLID_125_" class="st46" d="M435.5,637.2c0,0-11.9-64.3,88.8-81.7c0,0,49.6,9.5,58.7-27.2s-8.7,0-8.7,0L464,605.6
		c0,0-14.1,30.2,0,45.9s39.5,16.5,39.5,16.5S445.4,670.3,435.5,637.2z"/>
	<path id="XMLID_126_" class="st46" d="M544.8,499.1c0,0,39.7-18.4,13.2-38.8s19.5-20.5,19.5-20.5s-39.2-8.2-39.8,7.5
		c-0.7,15.7,19.9,22.8,19.9,22.8s-12,44.7-34.6,34.4L544.8,499.1z"/>
	<path id="XMLID_127_" class="st46" d="M562.5,668c0,0-82.4-19.3-39.5-68.4l20.3-15.8C543.3,583.8,477.4,640.4,562.5,668z"/>
	<path id="XMLID_128_" class="st46" d="M25,716.3c0,0-11-39,44.2-79.2C69.2,637.2,38.1,664.7,25,716.3z"/>
	<path id="XMLID_129_" class="st46" d="M38.2,531.5c0,0,30-36.6,95.8-25.5c65.8,11.2,82.1-13,82.1-13s-109,18-133.5,0L38.2,531.5z"
		/>
	<ellipse id="XMLID_133_" class="st47" cx="82.1" cy="433.2" rx="9.6" ry="3.3"/>
	<ellipse id="XMLID_131_" class="st47" cx="58.4" cy="424.6" rx="10.9" ry="3.1"/>
	<ellipse id="XMLID_134_" class="st47" cx="75.3" cy="449.7" rx="10.2" ry="3.2"/>
	<ellipse id="XMLID_135_" class="st47" cx="36.7" cy="441.5" rx="10.8" ry="3.3"/>
	<ellipse id="XMLID_130_" class="st47" cx="63.8" cy="438.6" rx="5.4" ry="2.3"/>
	<ellipse id="XMLID_132_" class="st48" cx="82.2" cy="423.8" rx="5.1" ry="2.8"/>
	<ellipse id="XMLID_136_" class="st48" cx="42.3" cy="425.7" rx="7.3" ry="4.2"/>
	<ellipse id="XMLID_137_" class="st49" cx="66.8" cy="431.5" rx="5.7" ry="1.6"/>
	<polygon id="XMLID_139_" class="st28" points="260.2,254.8 242.3,289.2 247.5,289.2 283.6,289.2 	"/>
	<polygon id="XMLID_140_" class="st28" points="251.7,290.6 253.6,383.7 279.4,383.2 275.4,289.2 251.7,284.6 	"/>
	<rect id="XMLID_138_" x="260.2" y="296.4" class="st50" width="5.3" height="12.6"/>
	<rect id="XMLID_141_" x="260.2" y="323.5" class="st50" width="8.5" height="8"/>
	<rect id="XMLID_142_" x="156.3" y="364.3" class="st50" width="5.5" height="11.2"/>
	<rect id="XMLID_143_" x="130.2" y="364.3" class="st50" width="5.4" height="13"/>
	<path id="XMLID_144_" class="st51" d="M272.5,289.2l-20.8-0.3l-11.4-0.2l20-33.9c0,0-0.4,0.7-1,1.9
		C255.6,263.9,244.9,288.8,272.5,289.2z"/>
	<path id="XMLID_145_" class="st20" d="M253.6,383.7l25.8-0.6l-16.5-7.7c-3.9-7.8-6.5-25.8-6.5-25.8l3.9-18.2v-8l-3.9-6.1l3.9-8.5
		v-12.6l2.7-7.1l-11.3-0.3L253.6,383.7z"/>
</g>
</svg>
