<?xml version="1.0" encoding="utf-8"?>
<!-- Generator: Adobe Illustrator 19.0.0, SVG Export Plug-In . SVG Version: 6.00 Build 0)  -->
<svg version="1.1" id="图层_1" xmlns="http://www.w3.org/2000/svg" xmlns:xlink="http://www.w3.org/1999/xlink" x="0px" y="0px"
	 viewBox="0 0 595.3 595.3" style="enable-background:new 0 0 595.3 595.3;" xml:space="preserve">
<style type="text/css">
	.st0{fill:none;stroke:#FFF;stroke-width:8;stroke-miterlimit:10;}
</style>
<path id="XMLID_306_" class="st0" d="M246.1,325.1c0,0-56.5,22-102,0s-14.1-78.5-14.1-78.5s17.3-42.4,78.5-26.7
	c0,0,84.7-140.4,174.2-3.5c0,0,80-38.9,97.3,47.4c17.3,86.3-122.4,71-122.4,71"/>
<path id="XMLID_305_" class="st0" d="M269.1,461.3h256.3c-173.7-71.5-435.2-4.9-435.2-4.9c34.5-50.2,213.3-62.8,213.3-62.8l1.1-90
	l-52.1-57.4"/>
<path id="XMLID_304_" class="st0" d="M236.7,305.8"/>
<path id="XMLID_303_" class="st0" d="M74.5,283.8c-23-34.5,20.9-61.7,20.9-61.7c-6.3-57.5,59.6-41.8,59.6-41.8
	c25.3-62.9,83.7-22,83.7-22"/>
<path id="XMLID_302_" class="st0" d="M390.5,165.6c-5.2-57.5-61.7-47.1-61.7-47.1c-38.7-48.1-85.8,0-85.8,0"/>
<line id="XMLID_301_" class="st0" x1="355.1" y1="250.1" x2="307.8" y2="297.1"/>
<path id="XMLID_300_" class="st0" d="M256.7,227"/>
<path id="XMLID_298_" class="st0" d="M323.7,326.9"/>
</svg>
